# xmcd CD database file
#
# Track frame offsets:
#	150
#	9408
#	16734
#	33864
#	56579
#	79944
#	106361
#	116453
#	134151
#	146427
#	155166
#	186401
#	206512
#
# Disc length: 2947 seconds
#
# Revision: 0
# Processed by: cddbd v1.5.2PL0 Copyright (c) Steve Scherf et al.
# Submitted via: CDex 1.51
#
DISCID=af0b810d
DTITLE=Luca Aquino - Icaro solo
DYEAR=2010
DGENRE=Jazz
TTITLE0=Riverberi 1
TTITLE1=Trapano Duet
TTITLE2=Labirinto
TTITLE3=La zattera rossa
TTITLE4=Piume Check
TTITLE5=Icaro
TTITLE6=Fabio e Mattia
TTITLE7=B/n
TTITLE8=100 mts. into the Church
TTITLE9=Trapano e cera
TTITLE10=Non perdere il filo
TTITLE11=Sol
TTITLE12=Wax Drill
EXTD=YEAR: 2010
EXTT0=
EXTT1=
EXTT2=
EXTT3=
EXTT4=
EXTT5=
EXTT6=
EXTT7=
EXTT8=
EXTT9=
EXTT10=
EXTT11=
EXTT12=
PLAYORDER=
